<svg width="91" height="83" viewBox="0 0 91 83" fill="none" xmlns="http://www.w3.org/2000/svg">
<g clip-path="url(#clip0_530_298)">
<path d="M81.7242 13.8334C81.3797 13.801 81.0324 13.801 80.6878 13.8334H9.91003C9.45641 13.8397 9.00579 13.9018 8.57031 14.0178L45.0967 47.1948L81.7242 13.8334Z" fill="#FFFEFE"/>
<path d="M85.4654 17.0381L48.661 50.4686C47.7138 51.3275 46.4324 51.8095 45.0968 51.8095C43.7612 51.8095 42.4799 51.3275 41.5327 50.4686L5.05683 17.2917C4.94469 17.6676 4.88524 18.0549 4.87988 18.4445V64.5556C4.87988 65.7785 5.41252 66.9514 6.36062 67.8161C7.30872 68.6809 8.59462 69.1667 9.93544 69.1667H80.7132C82.054 69.1667 83.3399 68.6809 84.288 67.8161C85.2361 66.9514 85.7688 65.7785 85.7688 64.5556V18.4445C85.7486 17.9641 85.6463 17.4896 85.4654 17.0381ZM13.3985 64.5556H9.88488V61.2586L28.2618 44.6356L31.826 47.8864L13.3985 64.5556ZM80.6627 64.5556H77.1238L58.6963 47.8864L62.2604 44.6356L80.6374 61.2586L80.6627 64.5556Z" fill="#FFFEFE"/>
</g>
<defs>
<clipPath id="clip0_530_298">
<rect width="91" height="83" fill="white" transform="translate(0.000976562)"/>
</clipPath>
</defs>
</svg>
