<svg width="171" height="71" viewBox="0 0 171 71" fill="none" xmlns="http://www.w3.org/2000/svg">
<path d="M0 10C0 4.47715 4.47715 0 10 0H103C108.523 0 113 4.47715 113 10V12.8464C113 16.6202 115.124 20.0725 118.493 21.7733L162.374 43.9269C163.772 44.6324 165.316 45 166.881 45H171L123.259 43.7653C117.636 43.6199 113 48.1379 113 53.762V61C113 66.5229 108.523 71 103 71H10C4.47715 71 0 66.5229 0 61V10Z" fill="white" fill-opacity="0.29"/>
<g filter="url(#filter0_d_530_335)">
<path d="M80.3066 22.3794C81.0586 23.8804 81.6226 25.4676 81.9985 27.1411C82.3745 28.8146 82.5625 30.4967 82.5625 32.1875C82.5625 34.4476 82.2402 36.6214 81.5957 38.709C80.9512 40.7965 80.0381 42.7547 78.8564 44.5835C77.6748 46.4123 76.2246 48.0513 74.5059 49.5005C72.7871 50.9497 70.8893 52.166 68.8125 53.1494V55.375H51.625V58.6875H58.5V62H41.3125V58.6875H48.1875V55.375H31V32.1875H34.4375C34.4375 30.0482 34.724 27.9951 35.2969 26.0283C35.8698 24.0615 36.6755 22.2155 37.7139 20.4902C38.7523 18.765 40.0055 17.2036 41.4736 15.8062C42.9417 14.4087 44.562 13.201 46.3345 12.1831C48.1069 11.1652 50.0226 10.3802 52.0815 9.82812C54.1405 9.27604 56.2799 9 58.5 9C60.8275 9 63.0833 9.31055 65.2676 9.93164C67.4518 10.5527 69.4839 11.4326 71.3638 12.5713C73.2437 13.71 74.9445 15.1074 76.4663 16.7637C77.9881 18.4199 79.2503 20.2487 80.2529 22.25H80.3066V22.3794ZM76.3589 22.25C75.0519 20.0589 73.3779 18.187 71.3369 16.6343C69.2959 15.0815 67.0221 13.9256 64.5156 13.1665C65.375 14.5122 66.0643 15.9701 66.5835 17.54C67.1027 19.11 67.5234 20.68 67.8457 22.25H76.3589ZM79.125 32.1875C79.125 29.9102 78.7311 27.7018 77.9434 25.5625H68.3828C68.6693 27.7708 68.8125 29.9705 68.8125 32.1616C68.8125 34.3527 68.8125 36.5697 68.8125 38.8125H77.9434C78.7311 36.6732 79.125 34.4648 79.125 32.1875ZM65.375 32.1875C65.375 31.0661 65.3392 29.9619 65.2676 28.875C65.196 27.7881 65.0885 26.6839 64.9453 25.5625H52.0547C51.9115 26.6667 51.804 27.7622 51.7324 28.8491C51.6608 29.936 51.625 31.0488 51.625 32.1875H65.375ZM58.5 12.4419C57.9808 12.4419 57.4884 12.623 57.0229 12.9854C56.5575 13.3477 56.1188 13.8307 55.707 14.4346C55.2952 15.0384 54.9282 15.7113 54.606 16.4531C54.2837 17.195 53.9883 17.9282 53.7197 18.6528C53.4512 19.3774 53.2274 20.0589 53.0483 20.6973C52.8693 21.3356 52.735 21.8532 52.6455 22.25H64.3545C64.265 21.8532 64.1307 21.3356 63.9517 20.6973C63.7726 20.0589 63.5578 19.3774 63.3071 18.6528C63.0565 17.9282 62.7611 17.195 62.4209 16.4531C62.0807 15.7113 61.7137 15.047 61.3198 14.4604C60.9259 13.8739 60.4873 13.3908 60.0039 13.0112C59.5205 12.6317 59.0192 12.4419 58.5 12.4419ZM52.4844 13.1665C49.9779 13.9084 47.7041 15.0557 45.6631 16.6084C43.6221 18.1611 41.9481 20.0417 40.6411 22.25H49.1543C49.4587 20.6973 49.8704 19.1359 50.3896 17.5659C50.9089 15.9959 51.6071 14.5295 52.4844 13.1665ZM39.0566 25.5625C38.2689 27.7018 37.875 29.9102 37.875 32.1875H48.1875C48.1875 31.0661 48.2233 29.9619 48.2949 28.875C48.3665 27.7881 48.474 26.6839 48.6172 25.5625H39.0566ZM34.4375 52.0625H65.375V35.5H34.4375V52.0625ZM68.8125 49.397C70.388 48.5171 71.8114 47.4647 73.0825 46.2397C74.3537 45.0148 75.4548 43.6432 76.3857 42.125H68.8125V49.397Z" fill="white"/>
</g>
<defs>
<filter id="filter0_d_530_335" x="31" y="9" width="63" height="61" filterUnits="userSpaceOnUse" color-interpolation-filters="sRGB">
<feFlood flood-opacity="0" result="BackgroundImageFix"/>
<feColorMatrix in="SourceAlpha" type="matrix" values="0 0 0 0 0 0 0 0 0 0 0 0 0 0 0 0 0 0 127 0" result="hardAlpha"/>
<feOffset dx="4" dy="4"/>
<feGaussianBlur stdDeviation="2"/>
<feComposite in2="hardAlpha" operator="out"/>
<feColorMatrix type="matrix" values="0 0 0 0 0 0 0 0 0 0 0 0 0 0 0 0 0 0 0.24 0"/>
<feBlend mode="normal" in2="BackgroundImageFix" result="effect1_dropShadow_530_335"/>
<feBlend mode="normal" in="SourceGraphic" in2="effect1_dropShadow_530_335" result="shape"/>
</filter>
</defs>
</svg>
