<svg width="91" height="83" viewBox="0 0 91 83" fill="none" xmlns="http://www.w3.org/2000/svg">
<g clip-path="url(#clip0_530_292)">
<path fill-rule="evenodd" clip-rule="evenodd" d="M62.7604 76.5433C57.3004 76.36 41.8266 74.4095 25.621 59.6321C9.41919 44.8512 7.28448 30.7412 7.07973 25.7577C6.7764 18.1632 13.154 10.7866 20.5212 7.90579C21.4084 7.55639 22.3799 7.42336 23.3404 7.51976C24.301 7.61616 25.2175 7.93868 26.0002 8.45567C32.0668 12.4881 36.2528 18.5886 39.8473 23.3853C40.6382 24.4391 40.9764 25.7216 40.7973 26.9882C40.6183 28.2548 39.9347 29.4171 38.8767 30.2535L31.4791 35.2647C31.1217 35.5001 30.8701 35.8458 30.7711 36.2376C30.6721 36.6294 30.7323 37.0407 30.9407 37.395C32.6166 40.172 35.5969 44.3082 39.0094 47.4207C42.4257 50.5332 47.1728 53.4313 50.4299 55.1328C50.8382 55.3419 51.3189 55.4003 51.7731 55.2961C52.2272 55.1919 52.6204 54.933 52.8717 54.5725L57.6871 47.8876C58.5724 46.815 59.8784 46.0964 61.3316 45.8824C62.7847 45.6684 64.2723 45.9755 65.4828 46.7394C70.8177 50.1078 77.0436 53.8601 81.6012 59.1825C82.214 59.9015 82.6038 60.7575 82.7299 61.6609C82.8559 62.5643 82.7136 63.482 82.3178 64.3181C79.1441 71.0723 71.1134 76.8235 62.7604 76.5433Z" fill="white"/>
</g>
<defs>
<clipPath id="clip0_530_292">
<rect width="91" height="83" fill="white" transform="translate(0.000976562)"/>
</clipPath>
</defs>
</svg>
