<svg width="240" height="65" viewBox="0 0 240 65" fill="none" xmlns="http://www.w3.org/2000/svg">
<g filter="url(#filter0_d_605_42)">
<path d="M10.001 28.5C10.001 16.0736 20.0746 6 32.501 6H207.501C219.927 6 230.001 16.0736 230.001 28.5C230.001 40.9264 219.927 51 207.501 51H32.501C20.0746 51 10.001 40.9264 10.001 28.5Z" fill="#D7D4D4" fill-opacity="0.5" shape-rendering="crispEdges"/>
<path d="M10.501 28.5C10.501 16.3497 20.3507 6.5 32.501 6.5H207.501C219.651 6.5 229.501 16.3497 229.501 28.5C229.501 40.6503 219.651 50.5 207.501 50.5H32.501C20.3507 50.5 10.501 40.6503 10.501 28.5Z" stroke="white" shape-rendering="crispEdges"/>
</g>
<defs>
<filter id="filter0_d_605_42" x="0.000976562" y="0" width="240" height="65" filterUnits="userSpaceOnUse" color-interpolation-filters="sRGB">
<feFlood flood-opacity="0" result="BackgroundImageFix"/>
<feColorMatrix in="SourceAlpha" type="matrix" values="0 0 0 0 0 0 0 0 0 0 0 0 0 0 0 0 0 0 127 0" result="hardAlpha"/>
<feOffset dy="4"/>
<feGaussianBlur stdDeviation="5"/>
<feComposite in2="hardAlpha" operator="out"/>
<feColorMatrix type="matrix" values="0 0 0 0 1 0 0 0 0 1 0 0 0 0 1 0 0 0 0.25 0"/>
<feBlend mode="normal" in2="BackgroundImageFix" result="effect1_dropShadow_605_42"/>
<feBlend mode="normal" in="SourceGraphic" in2="effect1_dropShadow_605_42" result="shape"/>
</filter>
</defs>
</svg>
